<svg width="12" height="12" viewBox="0 0 12 12" fill="none" xmlns="http://www.w3.org/2000/svg">
<path d="M11.2126 4.56563C11.1656 4.41796 11.0752 4.28792 10.9531 4.19256C10.8309 4.09721 10.6828 4.04098 10.5282 4.03125L7.74383 3.83906L6.71258 1.2375C6.65627 1.09425 6.55825 0.971205 6.43122 0.884289C6.30419 0.797374 6.154 0.750592 6.00008 0.75C5.84616 0.750592 5.69596 0.797374 5.56893 0.884289C5.4419 0.971205 5.34389 1.09425 5.28758 1.2375L4.23758 3.85312L1.47195 4.03125C1.3175 4.04161 1.16971 4.09807 1.0477 4.19334C0.925693 4.28861 0.835078 4.4183 0.787578 4.56563C0.7388 4.71521 0.73595 4.87598 0.779396 5.02721C0.822841 5.17843 0.91059 5.31317 1.03133 5.41406L3.15945 7.21406L2.52664 9.70312C2.48286 9.87151 2.49074 10.0492 2.54925 10.213C2.60777 10.3769 2.71422 10.5193 2.85477 10.6219C2.99119 10.7198 3.15372 10.7748 3.32157 10.7798C3.48941 10.7848 3.65493 10.7396 3.79695 10.65L5.99539 9.25781H6.00477L8.37195 10.7531C8.49338 10.832 8.63495 10.8743 8.77977 10.875C8.89801 10.8741 9.01446 10.846 9.12018 10.7931C9.22589 10.7401 9.31806 10.6636 9.38958 10.5694C9.46111 10.4753 9.51009 10.366 9.53277 10.2499C9.55544 10.1339 9.55121 10.0142 9.52039 9.9L8.85008 7.17656L10.9688 5.41406C11.0896 5.31317 11.1773 5.17843 11.2208 5.02721C11.2642 4.87598 11.2614 4.71521 11.2126 4.56563Z" fill="#141313"/>
</svg>
